<svg width="40" height="40" viewBox="0 0 40 40" fill="none" xmlns="http://www.w3.org/2000/svg">
<g clip-path="url(#clip0)">
<path d="M65 0H0V43.3333H65V0Z" fill="#EE1C25"/>
<path d="M14.8334 12.333L18.654 24.0916L8.6515 16.8244H21.0152L11.0128 24.0916L14.8334 12.333Z" fill="#FFFF00"/>
<path d="M26.5145 10.3405L26.1527 14.4459L24.0323 10.9119L27.8249 12.5246L23.8087 13.4492L26.5145 10.3405Z" fill="#FFFF00"/>
<path d="M31.5551 15.1577L29.6285 18.801L29.0457 14.7211L31.9153 17.6792L27.855 16.9728L31.5551 15.1577Z" fill="#FFFF00"/>
<path d="M32.0354 22.4259L28.7902 24.9663L29.9224 21.0036L31.3356 24.875L27.9168 22.5737L32.0354 22.4259Z" fill="#FFFF00"/>
<path d="M26.431 25.4722L26.2398 29.589L23.9747 26.146L27.8309 27.6001L23.8565 28.6903L26.431 25.4722Z" fill="#FFFF00"/>
</g>
<defs>
<clipPath id="clip0">
<rect width="65" height="43.3333" fill="white"/>
</clipPath>
</defs>
</svg>
