<svg width="12" height="12" viewBox="0 0 12 12" fill="none" xmlns="http://www.w3.org/2000/svg">
<rect width="12" height="12" rx="6" fill="black"/>
<path d="M6.49561 7.00879V8H5.46533V7.00879H6.49561ZM4.35449 4.87012C4.34635 4.58691 4.38053 4.33057 4.45703 4.10107C4.53353 3.87158 4.64421 3.67546 4.78906 3.5127C4.93392 3.34831 5.1097 3.22217 5.31641 3.13428C5.52311 3.04476 5.7526 3 6.00488 3C6.23438 3 6.44434 3.03337 6.63477 3.1001C6.82682 3.1652 6.99121 3.26042 7.12793 3.38574C7.26628 3.50944 7.3737 3.66081 7.4502 3.83984C7.52669 4.01888 7.56494 4.22233 7.56494 4.4502C7.56494 4.59993 7.5446 4.73258 7.50391 4.84814C7.46322 4.9637 7.41195 5.06787 7.3501 5.16064C7.28825 5.25179 7.21908 5.3348 7.14258 5.40967C7.06771 5.48291 6.99528 5.5529 6.92529 5.61963C6.86507 5.6766 6.80566 5.73112 6.74707 5.7832C6.68848 5.83529 6.63558 5.89062 6.58838 5.94922C6.54281 6.00781 6.50537 6.07292 6.47607 6.14453C6.4484 6.21452 6.43457 6.29671 6.43457 6.39111V6.6499H5.52637V6.33008C5.53125 6.18685 5.55485 6.06071 5.59717 5.95166C5.63949 5.84098 5.69157 5.7417 5.75342 5.65381C5.81527 5.56429 5.88363 5.48372 5.9585 5.41211C6.03337 5.33887 6.10579 5.26807 6.17578 5.19971C6.22624 5.14925 6.27913 5.09473 6.33447 5.03613C6.38981 4.97591 6.44027 4.91243 6.48584 4.8457C6.53304 4.77734 6.57048 4.70654 6.59814 4.6333C6.62744 4.55843 6.63965 4.48031 6.63477 4.39893C6.62663 4.30615 6.6071 4.22233 6.57617 4.14746C6.54688 4.07259 6.50537 4.00911 6.45166 3.95703C6.39795 3.90332 6.33366 3.86263 6.25879 3.83496C6.18392 3.80566 6.09928 3.79102 6.00488 3.79102C5.87305 3.79102 5.75911 3.82031 5.66309 3.87891C5.56868 3.9375 5.49137 4.01644 5.43115 4.11572C5.37093 4.21501 5.32617 4.32975 5.29688 4.45996C5.26921 4.59017 5.25537 4.72689 5.25537 4.87012H4.35449Z" fill="white"/>
</svg>
