<svg width="61" height="61" viewBox="0 0 61 61" fill="none" xmlns="http://www.w3.org/2000/svg">
<g clip-path="url(#clip0)">
<path d="M30.17 60.34C46.8324 60.34 60.34 46.8324 60.34 30.17C60.34 13.5076 46.8324 0 30.17 0C13.5076 0 0 13.5076 0 30.17C0 46.8324 13.5076 60.34 30.17 60.34Z" fill="#B1B3B4"/>
<path d="M35.81 29.5798L35.01 26.5898L30.17 29.6398L25.33 26.5898L24.53 29.5798L12.48 33.7198V49.7398C17.19 53.9098 23.39 56.4498 30.17 56.4498C36.96 56.4498 43.15 53.9098 47.86 49.7398V33.7298L35.81 29.5798ZM20.69 36.8198C21.51 36.8198 22.18 37.4898 22.18 38.3098C22.18 39.1298 21.51 39.7998 20.69 39.7998C19.87 39.7998 19.2 39.1298 19.2 38.3098C19.2 37.4898 19.86 36.8198 20.69 36.8198ZM26.49 43.8898H16.31V42.0098H26.49V43.8898ZM33.85 38.1698V36.4998H35.96V38.1698H37.36V36.4998H39.47V38.1698H40.96V36.4998H44.03V38.1698V39.8398H42.54V38.1698H40.95V39.8398H39.46V38.1698H37.44V39.8398H33.84V38.1698H33.85ZM44.03 43.8898H33.85V42.0098H44.03V43.8898Z" fill="white"/>
<path d="M20.05 27.2798L12.61 29.5998V31.3498L20.05 29.0198V27.2798Z" fill="white"/>
<path d="M40.29 27.2798L47.74 29.5998V31.3498L40.29 29.0198V27.2798Z" fill="white"/>
<path d="M38.42 15.8901H37.18C36.56 12.1801 33.66 9.3501 30.17 9.3501C26.68 9.3501 23.77 12.1801 23.16 15.8901H21.92V18.8201H23.16C23.78 22.5301 26.68 25.3601 30.17 25.3601C33.66 25.3601 36.57 22.5301 37.18 18.8201H38.42V15.8901ZM27.7 17.1701C27.08 17.1701 26.58 16.6701 26.58 16.0501C26.58 15.4301 27.08 14.9301 27.7 14.9301C28.32 14.9301 28.82 15.4301 28.82 16.0501C28.82 16.6701 28.32 17.1701 27.7 17.1701ZM32.64 17.1701C32.02 17.1701 31.52 16.6701 31.52 16.0501C31.52 15.4301 32.02 14.9301 32.64 14.9301C33.26 14.9301 33.76 15.4301 33.76 16.0501C33.76 16.6701 33.26 17.1701 32.64 17.1701Z" fill="white"/>
</g>
<defs>
<clipPath id="clip0">
<rect width="60.34" height="60.34" fill="white"/>
</clipPath>
</defs>
</svg>
